<svg xmlns="http://www.w3.org/2000/svg" width="48" height="48" viewBox="0 0 48 48" fill="none">
    <path fill="#8FBC5D"
        d="M0 40.32V7.68c0-2.671.25-3.673.835-4.591A4.914 4.914 0 0 1 3.089.835C4.09.334 5.009 0 7.68 0h32.64c2.671 0 3.673.25 4.591.835a4.914 4.914 0 0 1 2.254 2.254C47.666 4.09 48 5.009 48 7.68v32.64c0 2.671-.25 3.673-.835 4.591-.584.919-1.252 1.753-2.254 2.254-1.001.501-1.92.835-4.591.835H7.68c-2.671 0-3.673-.25-4.591-.835a4.914 4.914 0 0 1-2.254-2.254C.25 43.993 0 42.991 0 40.32Z"></path>
    <path fill="#fff"
        d="M10 14c.6 0 1-.343 1-.857V9.97c0-.171.1-.257.3-.257H15c.6 0 1-.343 1-.857S15.6 8 15 8h-3.7C10 8 9 8.857 9 9.971v3.172c0 .514.4.857 1 .857ZM11.3 34H15c.6 0 1-.4 1-1s-.4-1-1-1h-3.7c-.1 0-.3-.1-.3-.3V28c0-.6-.4-1-1-1s-1 .4-1 1v3.7c0 1.2 1 2.3 2.3 2.3ZM38.143 27c-.514 0-.857.4-.857 1v3.7c0 .2-.086.3-.257.3h-3.172c-.514 0-.857.4-.857 1s.343 1 .857 1h3.172C38.143 34 39 33 39 31.7V28c0-.6-.343-1-.857-1ZM33.857 9.714h3.172c.171 0 .257.086.257.257v3.172c0 .514.343.857.857.857s.857-.343.857-.857V9.97A1.94 1.94 0 0 0 37.029 8h-3.172c-.514 0-.857.343-.857.857s.343.857.857.857ZM19.5 19.59c0-.545.183-1.094.549-1.65.366-.56.9-1.024 1.602-1.39.702-.367 1.521-.55 2.457-.55.87 0 1.638.155 2.304.464.666.303 1.179.718 1.539 1.245.366.526.549 1.099.549 1.717 0 .487-.105.913-.315 1.28-.204.366-.45.684-.738.953-.282.263-.792.71-1.53 1.339a6.235 6.235 0 0 0-.495.472 1.814 1.814 0 0 0-.414.704c-.03.11-.078.304-.144.584-.114.596-.471.893-1.071.893a1.14 1.14 0 0 1-.792-.292c-.21-.194-.315-.483-.315-.867 0-.48.078-.896.234-1.245.156-.355.363-.664.621-.927.258-.27.606-.587 1.044-.953.384-.321.66-.561.828-.722.174-.166.318-.349.432-.55.12-.2.18-.417.18-.652 0-.458-.18-.844-.54-1.159-.354-.315-.813-.472-1.377-.472-.66 0-1.146.16-1.458.48-.312.315-.576.782-.792 1.4-.204.647-.591.97-1.161.97-.336 0-.621-.111-.855-.334-.228-.23-.342-.476-.342-.739ZM23.892 29c-.366 0-.687-.112-.963-.335-.27-.229-.405-.546-.405-.953 0-.36.132-.664.396-.91s.588-.37.972-.37c.378 0 .696.124.954.37s.387.55.387.91c0 .4-.135.716-.405.945-.27.229-.582.343-.936.343Z"></path>
    <path fill="#E5F5D2" fill-rule="evenodd"
        d="M17.1 13.565C18.839 11.83 21.257 11 24 11c2.78 0 5.205.826 6.939 2.57 1.737 1.748 2.561 4.196 2.561 6.992 0 3.02-.971 6.263-2.544 8.782C29.421 31.804 27.02 34 24 34c-3.03 0-5.43-2.23-6.958-4.693-1.569-2.525-2.542-5.766-2.542-8.745 0-2.811.855-5.257 2.6-6.997Zm6.9-.756c-4.799 0-7.731 2.885-7.731 7.753 0 5.228 3.465 11.629 7.731 11.629s7.731-6.31 7.731-11.63c0-4.867-2.843-7.752-7.731-7.752Z"
        clip-rule="evenodd"></path>
    <path fill="#E5F5D2" fill-rule="evenodd"
        d="M28 31.002a1 1 0 0 1 1 1c0 .588.09 1.57.362 2.526.28.986.701 1.77 1.238 2.173.784.588 1.797.81 3.15 1.067l.137.026c1.253.238 2.75.522 4.128 1.349a1 1 0 1 1-1.03 1.714c-1.068-.64-2.257-.867-3.597-1.122l-.04-.008c-1.267-.241-2.741-.522-3.948-1.427-1.063-.797-1.641-2.096-1.962-3.226A11.931 11.931 0 0 1 27 32.002a1 1 0 0 1 1-1ZM20 31.002a1 1 0 0 0-1 1c0 .588-.09 1.57-.362 2.526-.28.986-.701 1.77-1.238 2.173-.784.588-1.797.81-3.15 1.067a49.49 49.49 0 0 1-.136.026c-1.254.238-2.75.522-4.128 1.349a1 1 0 1 0 1.029 1.714c1.068-.64 2.258-.867 3.598-1.122l.04-.008c1.266-.241 2.74-.522 3.947-1.427 1.063-.797 1.642-2.096 1.962-3.226.329-1.16.438-2.327.438-3.072a1 1 0 0 0-1-1Z"
        clip-rule="evenodd"></path>
</svg>