<svg xmlns="http://www.w3.org/2000/svg" viewBox="0 0 48 48" width="48" height="48" fill="none"><g clip-path="url(#a)"><path fill="#FFD400" fill-rule="evenodd" d="M21.942 48h21.086c1.729 0 2.356-.18 2.988-.518a3.524 3.524 0 0 0 1.466-1.466c.338-.632.518-1.26.518-2.988V21.942c0-1.729-.18-2.356-.518-2.988a3.524 3.524 0 0 0-1.466-1.466c-.632-.338-1.26-.518-2.988-.518H32.97v9.163c0 2.377-.248 3.24-.713 4.108a4.846 4.846 0 0 1-2.016 2.016c-.869.465-1.731.713-4.108.713H16.97v10.058c0 1.729.18 2.356.518 2.988a3.524 3.524 0 0 0 1.466 1.466c.632.338 1.26.518 2.988.518Z" clip-rule="evenodd"></path><path fill="#fff" d="M42.182 35.653a.84.84 0 0 0-.848-.832.84.84 0 0 0-.847.832v3.689l-4.939-4.847a.858.858 0 0 0-1.198 0 .82.82 0 0 0 0 1.176l4.938 4.847h-3.757a.84.84 0 0 0-.848.832c0 .46.38.832.848.832h5.803c.11 0 .22-.023.324-.064a.838.838 0 0 0 .523-.767v-5.698Z"></path><path fill="#FFF3B6" fill-rule="evenodd" d="M4.972 0h21.086c1.729 0 2.356.18 2.988.518a3.524 3.524 0 0 1 1.466 1.466c.338.632.518 1.26.518 2.988v21.086c0 1.729-.18 2.356-.518 2.988a3.524 3.524 0 0 1-1.466 1.466c-.632.338-1.26.518-2.988.518H4.972c-1.729 0-2.356-.18-2.988-.518a3.524 3.524 0 0 1-1.466-1.466C.18 28.414 0 27.786 0 26.058V4.972c0-1.729.18-2.356.518-2.988A3.524 3.524 0 0 1 1.984.518C2.616.18 3.244 0 4.972 0Z" clip-rule="evenodd"></path><path fill="#DAB400" fill-rule="evenodd" d="M3.093 12.783v5.308c0 .447.292.748.748.748s.748-.301.748-.748V15.9h2.718v2.19c0 .447.291.748.747.748s.748-.301.748-.748v-5.308c0-.447-.292-.748-.748-.748s-.747.301-.747.748v1.86H4.589v-1.86c0-.447-.292-.748-.748-.748s-.748.301-.748.748Zm8.7.63v4.678c0 .447.293.748.748.748.457 0 .748-.301.748-.748v-4.679h1.414c.429 0 .775-.219.775-.63 0-.41-.346-.628-.775-.628H10.38c-.429 0-.775.219-.775.629 0 .41.346.63.775.63h1.414Zm4.46 4.696v-5.335c0-.602.41-.739.812-.739h.438c.465 0 .684.182.839.684l1.304 4.214h.018l1.286-4.214c.155-.502.374-.684.84-.684h.419c.4 0 .811.137.811.739v5.335c0 .374-.182.73-.665.73-.484 0-.666-.356-.666-.73v-4.068h-.018l-1.396 4.36c-.1.31-.328.438-.638.438s-.538-.128-.639-.438l-1.395-4.36h-.018v4.068c0 .374-.183.73-.666.73-.483 0-.666-.356-.666-.73Zm8.126-5.326v5.062c0 .665.347.875.876.875h3.119c.428 0 .775-.219.775-.63 0-.41-.347-.629-.775-.629h-2.5v-4.678c0-.447-.29-.748-.747-.748-.456 0-.748.301-.748.748Z" clip-rule="evenodd"></path></g><defs><clipPath id="a"><path fill="#fff" d="M0 0h48v48H0z"></path></clipPath></defs></svg>