<svg xmlns="http://www.w3.org/2000/svg" width="100" height="100" viewBox="0 0 100 100" fill-rule="nonzero"><path d="M16.024 0h67.95c5.572 0 7.593.58 9.63 1.67s3.636 2.688 4.725 4.725 1.67 4.058 1.67 9.63v67.95c0 5.572-.58 7.593-1.67 9.63s-2.688 3.636-4.725 4.725-4.058 1.67-9.63 1.67h-67.95c-5.572 0-7.593-.58-9.63-1.67S2.76 95.642 1.67 93.605 0 89.548 0 83.976v-67.95c0-5.572.58-7.593 1.67-9.63S4.358 2.76 6.395 1.67 10.452 0 16.024 0z" fill="#AB6993"></path><path d="M49.5 82C32.103 82 18 68.12 18 51s14.103-31 31.5-31S81 33.88 81 51 66.897 82 49.5 82zm-.468-6.477C68.574 75.523 77.37 58 66.532 58h-35c-10.47 0-2.042 17.523 17.5 17.523zM58.445 42c-.015 0-.03 0-.045.001-2.373.046-4.678 1.908-7.004 5.45-.303.462-.627 1.278-.165 1.58s.967-.18 2.335-1.06c2.467-1.586 3.546-2.5 4.88-2.472s2.582.994 4.88 2.472c1.368.88 1.873 1.364 2.335 1.06s.138-1.12-.165-1.58c-2.326-3.542-4.63-5.404-7.004-5.45h-.045zm-18 0c-.015 0-.03 0-.045.001-2.373.046-4.678 1.908-7.004 5.45-.303.462-.627 1.278-.165 1.58s.967-.18 2.335-1.06c2.467-1.586 3.546-2.5 4.88-2.472s2.582.994 4.88 2.472c1.368.88 1.873 1.364 2.335 1.06s.138-1.12-.165-1.58c-2.326-3.542-4.63-5.404-7.004-5.45h-.045zm8.48 32c.886 0 9.394-.574 9.394-1.678S52.8 70 48.924 70 40 71.217 40 72.322 48.038 74 48.924 74z" fill="#fff"></path></svg>