<svg xmlns="http://www.w3.org/2000/svg" width="100" height="100" viewBox="0 0 100 100" fill-rule="nonzero"><path d="M16.024 0h67.95c5.572 0 7.593.58 9.63 1.67s3.636 2.688 4.725 4.725 1.67 4.058 1.67 9.63v67.95c0 5.572-.58 7.593-1.67 9.63s-2.688 3.636-4.725 4.725-4.058 1.67-9.63 1.67h-67.95c-5.572 0-7.593-.58-9.63-1.67S2.76 95.642 1.67 93.605 0 89.548 0 83.976v-67.95c0-5.572.58-7.593 1.67-9.63S4.358 2.76 6.395 1.67 10.452 0 16.024 0z" fill="#AB6993"></path><g fill="#fff"><path d="M20 82l5.544-21.956L58.59 27 75 43.41 41.956 76.456 20 82zm9.536-19.738L26.2 75.79l13.528-3.327L68.8 43.41 58.59 33.21 29.536 62.262z"></path><path d="M37.93 74c-1.286-5.357-5.57-9.643-10.93-10.93L28.07 59C34.93 60.714 40.286 66.07 42 72.93L37.93 74z"></path><path d="M63.863 35L67 38.135 38.137 67 35 63.87zM23 78l6-1.448c-.62-2.276-2.276-3.93-4.552-4.552L23 78zm53.2-36L60 25.635 66.57 19l1.095.22c7.886 1.106 14.02 7.298 15.114 15.26l.22 1.105L76.2 42zM66.133 25.635L76.2 35.808l1.97-2c-1.095-5.086-5.038-9.067-10.076-10.173l-1.97 2z"></path></g></svg>