<svg xmlns="http://www.w3.org/2000/svg" viewBox="0 0 48 48" width="48" height="48" fill="none"><path fill="#8FBC5D" fill-rule="evenodd" d="M42.231 2H17.77c-.95 0-1.488.05-1.832.117a2.19 2.19 0 0 0-.692.248 2.09 2.09 0 0 0-.88.88c-.118.22-.19.397-.248.692-.066.344-.117.882-.117 1.832V30.23c0 .95.05 1.488.117 1.832.057.295.13.471.248.692.205.384.495.674.88.88.22.118.397.19.692.248.344.066.882.117 1.832.117H42.23c.95 0 1.488-.05 1.832-.117.295-.057.471-.13.692-.248a2.09 2.09 0 0 0 .88-.88c.118-.22.19-.397.248-.692.066-.344.117-.882.117-1.832V5.77c0-.95-.05-1.488-.117-1.832a2.188 2.188 0 0 0-.248-.692 2.09 2.09 0 0 0-.88-.88 2.19 2.19 0 0 0-.692-.248C43.719 2.051 43.18 2 42.23 2Zm0-2H17.77c-2.006 0-2.734.209-3.467.601a4.09 4.09 0 0 0-1.701 1.701C12.209 3.035 12 3.762 12 5.77V30.23c0 2.006.209 2.734.601 3.467a4.09 4.09 0 0 0 1.701 1.701c.733.392 1.46.601 3.467.601H42.23c2.006 0 2.734-.209 3.467-.601a4.09 4.09 0 0 0 1.701-1.701c.392-.733.601-1.46.601-3.467V5.77c0-2.006-.209-2.734-.601-3.467A4.09 4.09 0 0 0 45.698.601C44.965.209 44.238 0 42.23 0Z" clip-rule="evenodd"></path><path fill="#E5F5D2" fill-rule="evenodd" d="M10 24v6.231c0 2.168.227 3.268.837 4.41a6.088 6.088 0 0 0 2.522 2.522c1.142.61 2.242.837 4.41.837H24v6.154c0 1.337-.14 1.822-.4 2.311a2.726 2.726 0 0 1-1.135 1.134c-.489.262-.974.401-2.31.401H3.844c-1.336 0-1.821-.14-2.31-.4A2.726 2.726 0 0 1 .4 46.464C.139 45.976 0 45.491 0 44.155v-16.31c0-1.336.14-1.821.4-2.31A2.726 2.726 0 0 1 1.536 24.4c.489-.262.974-.401 2.31-.401H10Z" clip-rule="evenodd"></path><path fill="#8FBC5D" fill-rule="evenodd" d="M45.5 34c.63.627.636-8.6 1.267-9.227a1.6 1.6 0 0 0 0-2.272l-8.075-8.03a1.621 1.621 0 0 0-2.284 0L16.5 34c-.63.627 1.513-.218 2.144.41.856.09 1.356.09 2.284 0h19.01L45.5 34Z" clip-rule="evenodd"></path><path fill="#5F8C30" d="M4.414 37a.839.839 0 1 0 0 1.678h3.721l-4.889 4.89a.838.838 0 1 0 1.186 1.186l4.89-4.89v3.721a.839.839 0 1 0 1.678 0V37.84a.846.846 0 0 0-.518-.774.83.83 0 0 0-.32-.064H4.414V37Z"></path><path fill="#8FBC5D" d="M24.23 16.875a.5.5 0 0 1-.147-.272 18.96 18.96 0 0 0-.312-1.796c-.104-.417-.271-.751-.5-.96-.23-.23-.563-.397-1-.522-.459-.125-1.084-.25-1.875-.397-.271-.063-.396-.209-.396-.438 0-.126.042-.21.104-.293a.489.489 0 0 1 .292-.146 21.57 21.57 0 0 0 1.875-.313c.458-.105.791-.272 1-.501.229-.23.396-.564.5-1.003a19.05 19.05 0 0 0 .312-1.837c.021-.272.167-.397.438-.397.25 0 .396.125.437.397.084.772.188 1.357.292 1.796.104.417.27.73.5.96.23.209.563.376 1.02.501.46.126 1.084.25 1.855.418.25.063.375.209.375.438 0 .251-.146.397-.438.439-.77.125-1.375.25-1.833.355-.437.104-.77.271-1 .501-.229.23-.396.543-.5.982a15.078 15.078 0 0 0-.291 1.816c-.042.272-.188.397-.438.397-.083-.02-.188-.042-.27-.125ZM34.26 10.796a20.839 20.839 0 0 0-.202-.974c-.055-.239-.147-.422-.276-.533-.11-.128-.293-.22-.55-.294-.24-.073-.589-.147-1.03-.257C32.074 8.72 32 8.628 32 8.5c0-.128.074-.22.22-.239.442-.092.79-.165 1.03-.239.22-.055.404-.147.532-.275.13-.129.203-.294.276-.533.055-.239.129-.57.22-.992 0-.147.093-.221.221-.221.129 0 .202.074.24.22.073.405.146.736.22.974.073.24.147.405.275.533.11.129.294.22.533.294.24.074.588.147 1.03.24.146.018.22.11.22.238 0 .129-.074.22-.22.24-.442.091-.79.165-1.03.238-.239.074-.422.165-.551.294-.11.129-.202.312-.276.551-.055.24-.128.57-.202.993-.018.147-.11.22-.239.22-.128-.037-.22-.11-.239-.239Z"></path></svg>