<svg xmlns="http://www.w3.org/2000/svg" width="100" height="100" viewBox="0 0 100 100" fill-rule="evenodd"><path d="M16.024 0h67.95c5.572 0 7.593.58 9.63 1.67s3.636 2.688 4.725 4.725 1.67 4.058 1.67 9.63v67.95c0 5.572-.58 7.593-1.67 9.63s-2.688 3.636-4.725 4.725-4.058 1.67-9.63 1.67h-67.95c-5.572 0-7.593-.58-9.63-1.67S2.76 95.642 1.67 93.605 0 89.548 0 83.976v-67.95c0-5.572.58-7.593 1.67-9.63S4.358 2.76 6.395 1.67 10.452 0 16.024 0z" fill="#AB6993"></path><path d="M45.4 45.05c0 1.72-2.187 6.04-4.218 9.33a1.35 1.35 0 0 0-.157 1.048c.154.554.653.938 1.22.938h15.5a1.27 1.27 0 0 0 1.132-.7 1.31 1.31 0 0 0-.114-1.346c-2.887-3.94-4.175-6.797-4.175-9.262s1.288-5.32 4.186-9.28c1.325-1.873 2.026-4.08 2.026-6.387 0-6.04-4.844-10.957-10.8-10.957S39.2 23.338 39.2 29.38a11.01 11.01 0 0 0 2.039 6.406c2.886 3.943 4.174 6.8 4.174 9.263zm28.034 13.1h-46.9c-.7 0-1.268.576-1.268 1.287v12.93c0 .7.567 1.286 1.268 1.286h46.9c.7 0 1.268-.576 1.268-1.286v-12.93c0-.7-.568-1.287-1.268-1.287zm-7.162 17.397H33.73c-.7 0-1.268.576-1.268 1.287v1.458c0 .7.567 1.287 1.268 1.287h32.542c.7 0 1.268-.576 1.268-1.287v-1.458c-.001-.7-.568-1.287-1.268-1.287z" fill-rule="nonzero" fill="#fff"></path></svg>